<svg width="350" height="350" viewBox="0 0 350 350" fill="none" xmlns="http://www.w3.org/2000/svg">
<path d="M229.467 25.3539C232.442 17.18 228.239 8.06789 219.831 5.8395C190.283 -1.99142 159.101 -1.96843 129.412 6.04229C94.6376 15.4251 63.6056 35.309 40.5504 62.9808C17.4951 90.6526 3.5397 124.764 0.588459 160.661C-2.36278 196.557 5.83395 232.49 24.0601 263.556C42.2862 294.622 69.654 319.307 102.429 334.243C135.203 349.179 171.788 353.639 207.191 347.014C242.594 340.388 275.091 323 300.246 297.223C321.723 275.215 336.956 248.006 344.535 218.393C346.692 209.966 340.788 201.852 332.201 200.461V200.461C323.615 199.07 315.611 204.939 313.289 213.322C306.854 236.542 294.649 257.857 277.702 275.223C257.075 296.36 230.427 310.618 201.397 316.051C172.366 321.484 142.367 317.827 115.491 305.579C88.6163 293.332 66.1747 273.09 51.2293 247.616C36.2838 222.142 29.5625 192.677 31.9825 163.242C34.4026 133.807 45.846 105.835 64.7513 83.1443C83.6566 60.4534 109.103 44.1485 137.618 36.4547C161.044 30.1337 185.605 29.8778 209.014 35.5892C217.464 37.6511 226.492 33.5278 229.467 25.3539V25.3539Z" fill="white"/>
<path d="M182.279 264.541C183.098 273.606 191.166 280.419 199.992 278.193C216.063 274.141 231.026 266.32 243.598 255.282C260.319 240.6 271.943 220.986 276.794 199.269C281.645 177.552 279.471 154.856 270.586 134.455C261.701 114.053 246.564 97.0024 227.36 85.7617C208.156 74.521 185.878 69.672 163.739 71.9143C141.6 74.1565 120.746 83.3741 104.186 98.237C87.6255 113.1 76.2152 132.84 71.6013 154.608C68.1324 170.974 68.64 187.851 72.9755 203.847C75.3564 212.632 85.2472 216.331 93.552 212.607V212.607C101.857 208.882 105.36 199.12 103.615 190.187C101.771 180.742 101.827 170.966 103.846 161.442C107.011 146.507 114.84 132.964 126.201 122.767C137.563 112.57 151.871 106.246 167.06 104.707C182.249 103.169 197.534 106.496 210.71 114.208C223.886 121.92 234.271 133.618 240.367 147.615C246.463 161.612 247.954 177.184 244.626 192.084C241.298 206.984 233.323 220.441 221.85 230.514C214.535 236.937 206.039 241.772 196.9 244.789C188.257 247.642 181.461 255.476 182.279 264.541V264.541Z" fill="white"/>
<circle cx="175" cy="176" r="56" fill="white"/>
<circle cx="302" cy="101" r="32" fill="white"/>
<circle cx="132" cy="249" r="24" fill="white"/>
</svg>
