<svg xmlns="http://www.w3.org/2000/svg" width="56" height="56" fill="none">
    <circle cx="28" cy="28" r="28" fill="#FCB72B" />
    <path fill="#495567" fill-rule="evenodd"
        d="M31.383 14H19.256a2.335 2.335 0 0 0-2.332 2.332v23.321a2.335 2.335 0 0 0 2.332 2.332h11.66v-.834a10.604 10.604 0 0 1 1.788-5.903.466.466 0 0 0-.058-.589l-3.265-3.265a1.513 1.513 0 0 1 .11-2.239 1.571 1.571 0 0 1 2.089.161l4.604 4.604.66-.66-3.129-3.128v-13.8A2.335 2.335 0 0 0 31.383 14Zm1.4 15.199-.544-.543a2.51 2.51 0 0 0-3.341-.221 2.446 2.446 0 0 0-.177 3.619l3 2.999a11.534 11.534 0 0 0-1.734 6h-10.73a1.4 1.4 0 0 1-1.4-1.4v-1.4h11.66v-.932h-11.66V17.73h14.925V29.2Zm-14.926-12.4h14.925v-.467a1.4 1.4 0 0 0-1.399-1.4H19.256a1.4 1.4 0 0 0-1.4 1.4v.466ZM35.09 24.85l-.629.688 2.86 2.622a3.272 3.272 0 0 1 1.058 2.407v11.418h.933V30.567a4.208 4.208 0 0 0-1.36-3.095L35.09 24.85Zm-15.367-2.455h1.865a.933.933 0 0 0 .933-.932v-1.866a.933.933 0 0 0-.933-.933h-1.865a.933.933 0 0 0-.933.933v1.866c0 .515.417.932.933.932Zm0-2.798h1.865v1.866h-1.865v-1.866Zm6.53 2.798h-1.866a.933.933 0 0 1-.933-.932v-1.866c0-.515.418-.933.933-.933h1.865c.516 0 .933.418.933.933v1.866a.933.933 0 0 1-.933.932Zm0-2.798h-1.866v1.866h1.865v-1.866Zm2.798 2.798h1.866a.933.933 0 0 0 .932-.932v-1.866a.933.933 0 0 0-.932-.933H29.05a.933.933 0 0 0-.933.933v1.866c0 .515.418.932.933.932Zm0-2.798h1.866v1.866H29.05v-1.866Zm-7.463 7.463h-1.865a.933.933 0 0 1-.933-.933V24.26c0-.515.417-.933.933-.933h1.865c.515 0 .933.418.933.933v1.866a.933.933 0 0 1-.933.933Zm0-2.799h-1.865v1.866h1.865V24.26Zm-1.865 7.463h1.865a.933.933 0 0 0 .933-.933v-1.866a.933.933 0 0 0-.933-.933h-1.865a.933.933 0 0 0-.933.933v1.866c0 .515.417.933.933.933Zm0-2.799h1.865v1.866h-1.865v-1.866Zm6.53-1.865h-1.866a.933.933 0 0 1-.933-.933V24.26c0-.515.418-.933.933-.933h1.865c.516 0 .933.418.933.933v1.866a.933.933 0 0 1-.933.933Zm0-2.799h-1.866v1.866h1.865V24.26Zm2.798 2.799h1.866a.933.933 0 0 0 .932-.933V24.26a.933.933 0 0 0-.932-.933H29.05a.933.933 0 0 0-.933.933v1.866c0 .515.418.933.933.933Zm0-2.799h1.866v1.866H29.05V24.26Zm-2.799 7.463h-1.865a.933.933 0 0 1-.933-.933v-1.866c0-.515.418-.933.933-.933h1.865c.516 0 .933.418.933.933v1.866a.933.933 0 0 1-.933.933Zm0-2.799h-1.865v1.866h1.865v-1.866Zm-6.53 7.463h1.866a.933.933 0 0 0 .933-.933V33.59a.933.933 0 0 0-.933-.933h-1.865a.933.933 0 0 0-.933.933v1.865c0 .516.417.933.933.933Zm0-2.798h1.866v1.865h-1.865V33.59Zm6.53 2.798h-1.865a.933.933 0 0 1-.933-.933V33.59c0-.516.418-.933.933-.933h1.865c.516 0 .933.417.933.933v1.865a.933.933 0 0 1-.933.933Zm0-2.798h-1.865v1.865h1.865V33.59Zm-.466 5.597h-.933v.932h.933v-.932Z"
        clip-rule="evenodd" />
</svg>